<svg width="150" height="148" viewBox="0 0 150 148" fill="none" xmlns="http://www.w3.org/2000/svg">
<g id="Container">
<path id="Ellipse" d="M75 1C89.5369 1 103.747 5.28138 115.834 13.3027C127.921 21.3241 137.342 32.7251 142.905 46.0641C148.468 59.4031 149.924 74.081 147.088 88.2416C144.252 102.402 137.252 115.41 126.972 125.619C116.693 135.828 103.597 142.781 89.3391 145.597C75.0815 148.414 60.3031 146.968 46.8728 141.443C33.4424 135.918 21.9633 126.561 13.887 114.557C5.8107 102.552 1.5 88.438 1.5 74H22.08C22.08 84.3954 25.1837 94.5573 30.9986 103.201C36.8135 111.844 45.0785 118.581 54.7484 122.559C64.4183 126.537 75.0587 127.578 85.3242 125.55C95.5897 123.522 105.019 118.516 112.42 111.166C119.821 103.815 124.861 94.4496 126.903 84.254C128.945 74.0583 127.897 63.4902 123.892 53.8862C119.886 44.2821 113.103 36.0733 104.401 30.298C95.6981 24.5226 85.4666 21.44 75 21.44V1Z" fill="#14B8A6" stroke="white" stroke-width="1.58667"/>
<path id="Ellipse_2" d="M1.5 74C1.5 54.6392 9.24373 36.0714 23.0277 22.3812C36.8116 8.69105 55.5066 1 75 1V21.44C60.9647 21.44 47.5043 26.9776 37.5799 36.8345C27.6555 46.6914 22.08 60.0602 22.08 74H1.5Z" fill="#FACC15" stroke="white" stroke-width="1.58667"/>
</g>
</svg>
