<svg width="24" height="24" viewBox="0 0 24 24" fill="none" xmlns="http://www.w3.org/2000/svg">
<path d="M9.99981 18.998C9.76616 18.9984 9.53972 18.9171 9.35981 18.768C9.1553 18.5984 9.02666 18.3545 9.00227 18.09C8.97788 17.8254 9.05975 17.5621 9.22981 17.358L13.7098 11.998L9.38981 6.62799C9.22204 6.4214 9.14354 6.15645 9.17169 5.89181C9.19985 5.62717 9.33233 5.38466 9.53981 5.21799C9.74898 5.03395 10.0254 4.94552 10.3026 4.97399C10.5797 5.00246 10.8324 5.14527 10.9998 5.36799L15.8298 11.368C16.1331 11.737 16.1331 12.269 15.8298 12.638L10.8298 18.638C10.6263 18.8834 10.318 19.0172 9.99981 18.998Z" fill="#93AD3D"/>
</svg>
